<svg xmlns="http://www.w3.org/2000/svg" width="256" height="256" viewBox="0 0 100 100"><rect width="100" height="100" rx="20" fill="#3498db"></rect><path fill="#fff" d="M25.42 64.76L25.42 64.76Q24.90 64.76 24.54 64.32L24.54 64.32L13.18 50.04L15.06 48.16L26.50 62.64Q26.78 63.04 26.78 63.48L26.78 63.48Q26.78 64.12 26.32 64.44Q25.86 64.76 25.42 64.76ZM24.98 36.68L24.98 36.68Q25.46 36.68 25.80 37.04Q26.14 37.40 26.14 37.84L26.14 37.84Q26.14 38.32 25.78 38.68L25.78 38.68L7.62 55.68L7.30 52.96L24.10 37.08Q24.50 36.68 24.98 36.68ZM6.66 64.60L6.66 64.60Q6.10 64.60 5.76 64.24Q5.42 63.88 5.42 63.36L5.42 63.36L5.42 37.84Q5.42 37.32 5.78 36.96Q6.14 36.60 6.70 36.60L6.70 36.60Q7.22 36.60 7.58 36.96Q7.94 37.32 7.94 37.84L7.94 37.84L7.94 63.36Q7.90 63.88 7.54 64.24Q7.18 64.60 6.66 64.60ZM48.42 44.16L48.42 44.16Q48.94 44.16 49.28 44.52Q49.62 44.88 49.62 45.40L49.62 45.40L49.62 63.40Q49.62 63.88 49.26 64.24Q48.90 64.60 48.42 64.60L48.42 64.60Q47.86 64.60 47.54 64.24Q47.22 63.88 47.22 63.40L47.22 63.40L47.22 58.64L47.90 58.32Q47.90 59.44 47.28 60.60Q46.66 61.76 45.58 62.76Q44.50 63.76 43.04 64.38Q41.58 65 39.86 65L39.86 65Q37.18 65 35.04 63.60Q32.90 62.20 31.68 59.76Q30.46 57.32 30.46 54.28L30.46 54.28Q30.46 51.16 31.70 48.78Q32.94 46.40 35.06 45.04Q37.18 43.68 39.82 43.68L39.82 43.68Q41.54 43.68 43.04 44.28Q44.54 44.88 45.66 45.92Q46.78 46.96 47.42 48.30Q48.06 49.64 48.06 51.08L48.06 51.08L47.22 50.48L47.22 45.40Q47.22 44.88 47.54 44.52Q47.86 44.16 48.42 44.16ZM40.10 62.76L40.10 62.76Q42.22 62.76 43.86 61.66Q45.50 60.56 46.44 58.62Q47.38 56.68 47.38 54.28L47.38 54.28Q47.38 51.92 46.44 50.04Q45.50 48.16 43.86 47.04Q42.22 45.92 40.10 45.92L40.10 45.92Q38.02 45.92 36.36 47.00Q34.70 48.08 33.76 49.96Q32.82 51.84 32.82 54.28L32.82 54.28Q32.82 56.68 33.74 58.62Q34.66 60.56 36.32 61.66Q37.98 62.76 40.10 62.76ZM54.58 44.24L54.58 44.24L63.90 44.24Q64.38 44.24 64.70 44.58Q65.02 44.92 65.02 45.40L65.02 45.40Q65.02 45.84 64.70 46.16Q64.38 46.48 63.90 46.48L63.90 46.48L54.58 46.48Q54.10 46.48 53.76 46.14Q53.42 45.80 53.42 45.36L53.42 45.36Q53.42 44.88 53.76 44.56Q54.10 44.24 54.58 44.24ZM58.70 38.60L58.70 38.60Q59.22 38.60 59.56 38.96Q59.90 39.32 59.90 39.80L59.90 39.80L59.90 59.88Q59.90 61.00 60.20 61.56Q60.50 62.12 60.98 62.30Q61.46 62.48 61.94 62.48L61.94 62.48Q62.26 62.48 62.52 62.38Q62.78 62.28 63.10 62.28L63.10 62.28Q63.46 62.28 63.72 62.56Q63.98 62.84 63.98 63.28L63.98 63.28Q63.98 63.84 63.34 64.22Q62.70 64.60 61.82 64.60L61.82 64.60Q61.46 64.60 60.74 64.54Q60.02 64.48 59.26 64.10Q58.50 63.72 58 62.76Q57.50 61.80 57.50 60.00L57.50 60.00L57.50 39.80Q57.50 39.32 57.84 38.96Q58.18 38.60 58.70 38.60ZM71.78 45.00L71.78 63.40Q71.78 63.88 71.42 64.24Q71.06 64.60 70.58 64.60L70.58 64.60Q70.06 64.60 69.72 64.24Q69.38 63.88 69.38 63.40L69.38 63.40L69.38 45.00Q69.38 44.52 69.72 44.16Q70.06 43.80 70.58 43.80L70.58 43.80Q71.10 43.80 71.44 44.16Q71.78 44.52 71.78 45.00L71.78 45.00ZM70.58 41.12L70.58 41.12Q69.74 41.12 69.32 40.74Q68.90 40.36 68.90 39.64L68.90 39.64L68.90 39.24Q68.90 38.52 69.36 38.14Q69.82 37.76 70.62 37.76L70.62 37.76Q71.38 37.76 71.80 38.14Q72.22 38.52 72.22 39.24L72.22 39.24L72.22 39.64Q72.22 40.36 71.80 40.74Q71.38 41.12 70.58 41.12ZM79.46 64.60L79.46 64.60Q78.94 64.60 78.60 64.24Q78.26 63.88 78.26 63.40L78.26 63.40L78.26 36.20Q78.26 35.72 78.60 35.36Q78.94 35.00 79.46 35.00L79.46 35.00Q79.98 35.00 80.32 35.36Q80.66 35.72 80.66 36.20L80.66 36.20L80.66 63.40Q80.66 63.88 80.32 64.24Q79.98 64.60 79.46 64.60ZM93.06 44.08L93.06 44.08Q93.50 44.08 93.86 44.46Q94.22 44.84 94.22 45.28L94.22 45.28Q94.22 45.80 93.78 46.20L93.78 46.20L80.34 57.64L80.22 54.80L92.22 44.48Q92.58 44.08 93.06 44.08ZM93.38 64.60L93.38 64.60Q92.86 64.60 92.50 64.16L92.50 64.16L83.38 54.48L85.18 52.84L94.22 62.48Q94.58 62.88 94.58 63.40L94.58 63.40Q94.58 63.96 94.14 64.28Q93.70 64.60 93.38 64.60Z"></path></svg>